<svg xmlns="http://www.w3.org/2000/svg" viewBox="0 0 1200 900" width="1200" height="900"><defs><linearGradient id="g" x1="0" y1="0" x2="1" y2="1"><stop offset="0" stop-color="hsl(350 55% 92%)"/><stop offset="1" stop-color="hsl(140 60% 84%)"/></linearGradient><filter id="b" x="-40%" y="-40%" width="180%" height="180%"><feGaussianBlur stdDeviation="42.00973169878125"/></filter><filter id="b2" x="-40%" y="-40%" width="180%" height="180%"><feGaussianBlur stdDeviation="8"/></filter><filter id="n" x="0" y="0" width="100%" height="100%"><feTurbulence type="fractalNoise" baseFrequency="0.9" numOctaves="2" stitchTiles="stitch" result="n"/><feColorMatrix type="saturate" values="0"/><feComponentTransfer><feFuncA type="linear" slope="0.16"/></feComponentTransfer><feBlend in2="SourceGraphic" mode="soft-light"/></filter><clipPath id="c"><rect width="1200" height="900"/></clipPath></defs><rect width="1200" height="900" fill="url(#g)"/><g clip-path="url(#c)"><path d="M659.7,768.5C654.7,853.1 579.3,936.5 507.5,1003.3C435.7,1070.0 311.9,1183.0 229.0,1168.7C146.1,1154.5 36.5,1004.6 10.1,917.9C-16.3,831.1 29.2,719.0 70.4,648.1C111.7,577.3 179.5,518.3 257.4,492.9C335.3,467.5 470.7,449.9 537.8,495.8C604.8,541.7 664.8,683.9 659.7,768.5Z" fill="hsl(347.7279235236347 85% 60.716648902744055% / 0.75)" filter="url(#b)"/><path d="M475.0,639.2C483.6,728.4 365.7,889.4 282.5,939.0C199.2,988.6 60.9,964.7 -24.5,936.7C-109.9,908.7 -183.8,848.0 -229.9,770.8C-275.9,693.6 -334.8,546.2 -300.9,473.4C-267.0,400.6 -114.9,345.6 -26.2,334.0C62.4,322.4 147.6,352.9 231.2,403.8C314.7,454.7 466.5,550.0 475.0,639.2Z" fill="hsl(18.722826056182384 85% 67.12155711371452% / 0.75)" filter="url(#b)"/><circle cx="581" cy="578" r="60" fill="none" stroke="hsl(350 60% 20% / 0.85)" stroke-width="8" opacity="1.00"/><circle cx="581" cy="578" r="115" fill="none" stroke="hsl(350 60% 20% / 0.85)" stroke-width="4" opacity="0.85"/><circle cx="581" cy="578" r="163" fill="none" stroke="hsl(350 60% 20% / 0.85)" stroke-width="8" opacity="0.70"/><circle cx="581" cy="578" r="250" fill="none" stroke="hsl(350 60% 20% / 0.85)" stroke-width="10" opacity="0.55"/><circle cx="581" cy="578" r="299" fill="none" stroke="hsl(350 60% 20% / 0.85)" stroke-width="6" opacity="0.40"/></g><rect width="1200" height="900" fill="hsl(350 50% 50%)" filter="url(#n)" opacity="0.55"/></svg>