<svg xmlns="http://www.w3.org/2000/svg" viewBox="0 0 1000 1250" width="1000" height="1250"><defs><linearGradient id="g" x1="0" y1="0" x2="0" y2="1"><stop offset="0" stop-color="hsl(168 45% 14%)"/><stop offset="1" stop-color="hsl(318 50% 26%)"/></linearGradient><filter id="b" x="-40%" y="-40%" width="180%" height="180%"><feGaussianBlur stdDeviation="58.246556436643004"/></filter><filter id="b2" x="-40%" y="-40%" width="180%" height="180%"><feGaussianBlur stdDeviation="8"/></filter><filter id="n" x="0" y="0" width="100%" height="100%"><feTurbulence type="fractalNoise" baseFrequency="0.9" numOctaves="2" stitchTiles="stitch" result="n"/><feColorMatrix type="saturate" values="0"/><feComponentTransfer><feFuncA type="linear" slope="0.16"/></feComponentTransfer><feBlend in2="SourceGraphic" mode="soft-light"/></filter><clipPath id="c"><rect width="1000" height="1250"/></clipPath></defs><rect width="1000" height="1250" fill="url(#g)"/><g clip-path="url(#c)"><path d="M834.8,1004.1C843.5,1069.7 808.0,1191.3 754.6,1233.3C701.2,1275.3 586.2,1274.4 514.3,1256.1C442.5,1237.9 342.9,1179.5 323.6,1123.7C304.4,1067.8 366.0,977.3 399.1,920.9C432.1,864.6 471.4,799.2 522.0,785.7C572.6,772.2 650.5,803.8 702.6,840.2C754.7,876.6 826.1,938.6 834.8,1004.1Z" fill="hsl(174.71561755239964 85% 65.92837421805598% / 0.75)" filter="url(#b)"/><path d="M929.5,965.6C931.7,1023.5 878.4,1113.1 829.7,1147.7C780.9,1182.3 695.2,1187.2 637.0,1173.2C578.8,1159.2 499.5,1111.2 480.6,1063.7C461.7,1016.2 498.2,943.0 523.4,888.0C548.6,833.1 582.8,748.8 631.6,734.2C680.4,719.5 766.7,761.6 816.3,800.2C866.0,838.7 927.3,907.6 929.5,965.6Z" fill="hsl(173.22136144340038 85% 55.26363507262431% / 0.75)" filter="url(#b)"/><path d="M899.4,845.3C892.6,907.9 774.3,966.5 712.2,1007.5C650.0,1048.5 588.2,1099.2 526.6,1091.5C465.0,1083.7 365.9,1017.6 342.7,960.9C319.5,904.2 356.9,812.1 387.4,751.2C417.9,690.3 464.9,615.4 525.8,595.5C586.7,575.6 690.7,590.2 753.0,631.8C815.2,673.5 906.2,782.6 899.4,845.3Z" fill="hsl(183.3557125851512 85% 57.51577353104949% / 0.75)" filter="url(#b)"/><rect x="25" y="274" width="75" height="976" rx="38" fill="hsl(168 70% 70% / 0.8)"/><rect x="150" y="999" width="75" height="251" rx="38" fill="hsl(174 70% 70% / 0.8)"/><rect x="275" y="844" width="75" height="406" rx="38" fill="hsl(180 70% 70% / 0.8)"/><rect x="400" y="367" width="75" height="883" rx="38" fill="hsl(186 70% 70% / 0.8)"/><rect x="525" y="330" width="75" height="920" rx="38" fill="hsl(192 70% 70% / 0.8)"/><rect x="650" y="1011" width="75" height="239" rx="38" fill="hsl(198 70% 70% / 0.8)"/><rect x="775" y="307" width="75" height="943" rx="38" fill="hsl(204 70% 70% / 0.8)"/><rect x="900" y="642" width="75" height="608" rx="38" fill="hsl(210 70% 70% / 0.8)"/></g><rect width="1000" height="1250" fill="hsl(168 50% 50%)" filter="url(#n)" opacity="0.55"/></svg>