<svg xmlns="http://www.w3.org/2000/svg" viewBox="0 0 1200 900" width="1200" height="900"><defs><linearGradient id="g" x1="0" y1="0" x2="1" y2="1"><stop offset="0" stop-color="hsl(200 45% 14%)"/><stop offset="1" stop-color="hsl(154.8278529732488 50% 26%)"/></linearGradient><filter id="b" x="-40%" y="-40%" width="180%" height="180%"><feGaussianBlur stdDeviation="31.391963148489594"/></filter><filter id="b2" x="-40%" y="-40%" width="180%" height="180%"><feGaussianBlur stdDeviation="8"/></filter><filter id="n" x="0" y="0" width="100%" height="100%"><feTurbulence type="fractalNoise" baseFrequency="0.9" numOctaves="2" stitchTiles="stitch" result="n"/><feColorMatrix type="saturate" values="0"/><feComponentTransfer><feFuncA type="linear" slope="0.16"/></feComponentTransfer><feBlend in2="SourceGraphic" mode="soft-light"/></filter><clipPath id="c"><rect width="1200" height="900"/></clipPath></defs><rect width="1200" height="900" fill="url(#g)"/><g clip-path="url(#c)"><path d="M433.6,345.7C433.3,425.8 401.2,532.5 342.3,584.7C283.4,637.0 152.3,679.5 80.1,659.1C7.8,638.8 -59.3,536.0 -91.2,462.6C-123.2,389.2 -142.6,280.7 -111.8,218.8C-81.0,156.9 17.5,110.2 93.5,91.0C169.5,71.9 287.7,61.5 344.4,103.9C401.1,146.4 434.0,265.5 433.6,345.7Z" fill="hsl(209.15014903992414 85% 67.70657938206568% / 0.75)" filter="url(#b)"/><path d="M540.7,120.6C545.1,196.2 519.3,301.6 459.0,364.1C398.8,426.6 273.3,506.6 179.3,495.7C85.2,484.9 -80.6,380.4 -105.5,299.0C-130.4,217.6 -22.4,78.7 29.8,7.4C82.1,-63.8 140.9,-112.3 208.0,-128.5C275.1,-144.6 377.0,-131.0 432.4,-89.5C487.9,-48.0 536.3,45.0 540.7,120.6Z" fill="hsl(191.9272924028337 85% 46.86699360492639% / 0.75)" filter="url(#b)"/><path d="M243.3,184.0C243.2,230.1 194.7,285.4 153.1,321.6C111.5,357.7 49.9,405.8 -6.2,401.1C-62.2,396.3 -156.5,346.2 -183.3,293.2C-210.1,240.1 -196.7,136.2 -166.9,82.7C-137.2,29.2 -58.5,-21.6 -5.0,-27.8C48.5,-34.1 112.6,10.0 154.0,45.3C195.4,80.6 243.5,137.9 243.3,184.0Z" fill="hsl(248.6063781194389 85% 52.72002756712027% / 0.75)" filter="url(#b)"/><circle cx="49" cy="49" r="6.5" fill="hsl(200 30% 96% / 0.9)" opacity="0.31"/><circle cx="146" cy="49" r="9.2" fill="hsl(200 30% 96% / 0.9)" opacity="0.38"/><circle cx="243" cy="49" r="11.7" fill="hsl(200 30% 96% / 0.9)" opacity="0.45"/><circle cx="341" cy="49" r="13.9" fill="hsl(200 30% 96% / 0.9)" opacity="0.50"/><circle cx="438" cy="49" r="15.5" fill="hsl(200 30% 96% / 0.9)" opacity="0.55"/><circle cx="535" cy="49" r="16.5" fill="hsl(200 30% 96% / 0.9)" opacity="0.57"/><circle cx="633" cy="49" r="16.6" fill="hsl(200 30% 96% / 0.9)" opacity="0.57"/><circle cx="730" cy="49" r="15.9" fill="hsl(200 30% 96% / 0.9)" opacity="0.56"/><circle cx="827" cy="49" r="14.5" fill="hsl(200 30% 96% / 0.9)" opacity="0.52"/><circle cx="925" cy="49" r="12.5" fill="hsl(200 30% 96% / 0.9)" opacity="0.47"/><circle cx="1022" cy="49" r="10.1" fill="hsl(200 30% 96% / 0.9)" opacity="0.41"/><circle cx="1119" cy="49" r="7.4" fill="hsl(200 30% 96% / 0.9)" opacity="0.34"/><circle cx="49" cy="146" r="8.4" fill="hsl(200 30% 96% / 0.9)" opacity="0.36"/><circle cx="146" cy="146" r="11.4" fill="hsl(200 30% 96% / 0.9)" opacity="0.44"/><circle cx="243" cy="146" r="14.2" fill="hsl(200 30% 96% / 0.9)" opacity="0.51"/><circle cx="341" cy="146" r="16.7" fill="hsl(200 30% 96% / 0.9)" opacity="0.58"/><circle cx="438" cy="146" r="18.7" fill="hsl(200 30% 96% / 0.9)" opacity="0.63"/><circle cx="535" cy="146" r="20.0" fill="hsl(200 30% 96% / 0.9)" opacity="0.66"/><circle cx="633" cy="146" r="20.1" fill="hsl(200 30% 96% / 0.9)" opacity="0.66"/><circle cx="730" cy="146" r="19.2" fill="hsl(200 30% 96% / 0.9)" opacity="0.64"/><circle cx="827" cy="146" r="17.5" fill="hsl(200 30% 96% / 0.9)" opacity="0.60"/><circle cx="925" cy="146" r="15.1" fill="hsl(200 30% 96% / 0.9)" opacity="0.53"/><circle cx="1022" cy="146" r="12.4" fill="hsl(200 30% 96% / 0.9)" opacity="0.46"/><circle cx="1119" cy="146" r="9.4" fill="hsl(200 30% 96% / 0.9)" opacity="0.39"/><circle cx="49" cy="243" r="9.9" fill="hsl(200 30% 96% / 0.9)" opacity="0.40"/><circle cx="146" cy="243" r="13.1" fill="hsl(200 30% 96% / 0.9)" opacity="0.48"/><circle cx="243" cy="243" r="16.3" fill="hsl(200 30% 96% / 0.9)" opacity="0.57"/><circle cx="341" cy="243" r="19.2" fill="hsl(200 30% 96% / 0.9)" opacity="0.64"/><circle cx="438" cy="243" r="21.7" fill="hsl(200 30% 96% / 0.9)" opacity="0.70"/><circle cx="535" cy="243" r="23.4" fill="hsl(200 30% 96% / 0.9)" opacity="0.75"/><circle cx="633" cy="243" r="23.6" fill="hsl(200 30% 96% / 0.9)" opacity="0.75"/><circle cx="730" cy="243" r="22.4" fill="hsl(200 30% 96% / 0.9)" opacity="0.72"/><circle cx="827" cy="243" r="20.1" fill="hsl(200 30% 96% / 0.9)" opacity="0.66"/><circle cx="925" cy="243" r="17.3" fill="hsl(200 30% 96% / 0.9)" opacity="0.59"/><circle cx="1022" cy="243" r="14.2" fill="hsl(200 30% 96% / 0.9)" opacity="0.51"/><circle cx="1119" cy="243" r="10.9" fill="hsl(200 30% 96% / 0.9)" opacity="0.43"/><circle cx="49" cy="341" r="10.8" fill="hsl(200 30% 96% / 0.9)" opacity="0.43"/><circle cx="146" cy="341" r="14.3" fill="hsl(200 30% 96% / 0.9)" opacity="0.51"/><circle cx="243" cy="341" r="17.7" fill="hsl(200 30% 96% / 0.9)" opacity="0.60"/><circle cx="341" cy="341" r="21.0" fill="hsl(200 30% 96% / 0.9)" opacity="0.69"/><circle cx="438" cy="341" r="24.1" fill="hsl(200 30% 96% / 0.9)" opacity="0.77"/><circle cx="535" cy="341" r="26.6" fill="hsl(200 30% 96% / 0.9)" opacity="0.83"/><circle cx="633" cy="341" r="27.1" fill="hsl(200 30% 96% / 0.9)" opacity="0.84"/><circle cx="730" cy="341" r="25.1" fill="hsl(200 30% 96% / 0.9)" opacity="0.79"/><circle cx="827" cy="341" r="22.1" fill="hsl(200 30% 96% / 0.9)" opacity="0.71"/><circle cx="925" cy="341" r="18.8" fill="hsl(200 30% 96% / 0.9)" opacity="0.63"/><circle cx="1022" cy="341" r="15.4" fill="hsl(200 30% 96% / 0.9)" opacity="0.54"/><circle cx="1119" cy="341" r="12.0" fill="hsl(200 30% 96% / 0.9)" opacity="0.45"/><circle cx="49" cy="438" r="11.2" fill="hsl(200 30% 96% / 0.9)" opacity="0.44"/><circle cx="146" cy="438" r="14.7" fill="hsl(200 30% 96% / 0.9)" opacity="0.53"/><circle cx="243" cy="438" r="18.3" fill="hsl(200 30% 96% / 0.9)" opacity="0.62"/><circle cx="341" cy="438" r="21.8" fill="hsl(200 30% 96% / 0.9)" opacity="0.71"/><circle cx="438" cy="438" r="25.3" fill="hsl(200 30% 96% / 0.9)" opacity="0.80"/><circle cx="535" cy="438" r="28.9" fill="hsl(200 30% 96% / 0.9)" opacity="0.89"/><circle cx="633" cy="438" r="30.0" fill="hsl(200 30% 96% / 0.9)" opacity="0.92"/><circle cx="730" cy="438" r="26.5" fill="hsl(200 30% 96% / 0.9)" opacity="0.83"/><circle cx="827" cy="438" r="23.0" fill="hsl(200 30% 96% / 0.9)" opacity="0.74"/><circle cx="925" cy="438" r="19.4" fill="hsl(200 30% 96% / 0.9)" opacity="0.65"/><circle cx="1022" cy="438" r="15.9" fill="hsl(200 30% 96% / 0.9)" opacity="0.56"/><circle cx="1119" cy="438" r="12.4" fill="hsl(200 30% 96% / 0.9)" opacity="0.47"/><circle cx="49" cy="535" r="11.0" fill="hsl(200 30% 96% / 0.9)" opacity="0.43"/><circle cx="146" cy="535" r="14.5" fill="hsl(200 30% 96% / 0.9)" opacity="0.52"/><circle cx="243" cy="535" r="17.9" fill="hsl(200 30% 96% / 0.9)" opacity="0.61"/><circle cx="341" cy="535" r="21.3" fill="hsl(200 30% 96% / 0.9)" opacity="0.70"/><circle cx="438" cy="535" r="24.6" fill="hsl(200 30% 96% / 0.9)" opacity="0.78"/><circle cx="535" cy="535" r="27.4" fill="hsl(200 30% 96% / 0.9)" opacity="0.85"/><circle cx="633" cy="535" r="27.9" fill="hsl(200 30% 96% / 0.9)" opacity="0.86"/><circle cx="730" cy="535" r="25.6" fill="hsl(200 30% 96% / 0.9)" opacity="0.80"/><circle cx="827" cy="535" r="22.4" fill="hsl(200 30% 96% / 0.9)" opacity="0.72"/><circle cx="925" cy="535" r="19.1" fill="hsl(200 30% 96% / 0.9)" opacity="0.64"/><circle cx="1022" cy="535" r="15.6" fill="hsl(200 30% 96% / 0.9)" opacity="0.55"/><circle cx="1119" cy="535" r="12.1" fill="hsl(200 30% 96% / 0.9)" opacity="0.46"/><circle cx="49" cy="633" r="10.1" fill="hsl(200 30% 96% / 0.9)" opacity="0.41"/><circle cx="146" cy="633" r="13.5" fill="hsl(200 30% 96% / 0.9)" opacity="0.49"/><circle cx="243" cy="633" r="16.7" fill="hsl(200 30% 96% / 0.9)" opacity="0.58"/><circle cx="341" cy="633" r="19.7" fill="hsl(200 30% 96% / 0.9)" opacity="0.65"/><circle cx="438" cy="633" r="22.4" fill="hsl(200 30% 96% / 0.9)" opacity="0.72"/><circle cx="535" cy="633" r="24.2" fill="hsl(200 30% 96% / 0.9)" opacity="0.77"/><circle cx="633" cy="633" r="24.5" fill="hsl(200 30% 96% / 0.9)" opacity="0.78"/><circle cx="730" cy="633" r="23.1" fill="hsl(200 30% 96% / 0.9)" opacity="0.74"/><circle cx="827" cy="633" r="20.7" fill="hsl(200 30% 96% / 0.9)" opacity="0.68"/><circle cx="925" cy="633" r="17.7" fill="hsl(200 30% 96% / 0.9)" opacity="0.60"/><circle cx="1022" cy="633" r="14.5" fill="hsl(200 30% 96% / 0.9)" opacity="0.52"/><circle cx="1119" cy="633" r="11.3" fill="hsl(200 30% 96% / 0.9)" opacity="0.44"/><circle cx="49" cy="730" r="8.8" fill="hsl(200 30% 96% / 0.9)" opacity="0.37"/><circle cx="146" cy="730" r="11.9" fill="hsl(200 30% 96% / 0.9)" opacity="0.45"/><circle cx="243" cy="730" r="14.8" fill="hsl(200 30% 96% / 0.9)" opacity="0.53"/><circle cx="341" cy="730" r="17.4" fill="hsl(200 30% 96% / 0.9)" opacity="0.59"/><circle cx="438" cy="730" r="19.5" fill="hsl(200 30% 96% / 0.9)" opacity="0.65"/><circle cx="535" cy="730" r="20.8" fill="hsl(200 30% 96% / 0.9)" opacity="0.68"/><circle cx="633" cy="730" r="21.0" fill="hsl(200 30% 96% / 0.9)" opacity="0.69"/><circle cx="730" cy="730" r="20.0" fill="hsl(200 30% 96% / 0.9)" opacity="0.66"/><circle cx="827" cy="730" r="18.1" fill="hsl(200 30% 96% / 0.9)" opacity="0.61"/><circle cx="925" cy="730" r="15.7" fill="hsl(200 30% 96% / 0.9)" opacity="0.55"/><circle cx="1022" cy="730" r="12.9" fill="hsl(200 30% 96% / 0.9)" opacity="0.48"/><circle cx="1119" cy="730" r="9.8" fill="hsl(200 30% 96% / 0.9)" opacity="0.40"/><circle cx="49" cy="827" r="7.0" fill="hsl(200 30% 96% / 0.9)" opacity="0.33"/><circle cx="146" cy="827" r="9.8" fill="hsl(200 30% 96% / 0.9)" opacity="0.40"/><circle cx="243" cy="827" r="12.4" fill="hsl(200 30% 96% / 0.9)" opacity="0.47"/><circle cx="341" cy="827" r="14.6" fill="hsl(200 30% 96% / 0.9)" opacity="0.52"/><circle cx="438" cy="827" r="16.3" fill="hsl(200 30% 96% / 0.9)" opacity="0.57"/><circle cx="535" cy="827" r="17.3" fill="hsl(200 30% 96% / 0.9)" opacity="0.59"/><circle cx="633" cy="827" r="17.5" fill="hsl(200 30% 96% / 0.9)" opacity="0.60"/><circle cx="730" cy="827" r="16.8" fill="hsl(200 30% 96% / 0.9)" opacity="0.58"/><circle cx="827" cy="827" r="15.2" fill="hsl(200 30% 96% / 0.9)" opacity="0.54"/><circle cx="925" cy="827" r="13.2" fill="hsl(200 30% 96% / 0.9)" opacity="0.49"/><circle cx="1022" cy="827" r="10.7" fill="hsl(200 30% 96% / 0.9)" opacity="0.42"/><circle cx="1119" cy="827" r="7.9" fill="hsl(200 30% 96% / 0.9)" opacity="0.35"/></g><rect width="1200" height="900" fill="hsl(200 50% 50%)" filter="url(#n)" opacity="0.55"/></svg>