<svg xmlns="http://www.w3.org/2000/svg" viewBox="0 0 1200 800" width="1200" height="800"><defs><linearGradient id="g" x1="0" y1="0" x2="0" y2="1"><stop offset="0" stop-color="hsl(168 55% 92%)"/><stop offset="1" stop-color="hsl(318 60% 84%)"/></linearGradient><filter id="b" x="-40%" y="-40%" width="180%" height="180%"><feGaussianBlur stdDeviation="43.02312997169793"/></filter><filter id="b2" x="-40%" y="-40%" width="180%" height="180%"><feGaussianBlur stdDeviation="8"/></filter><filter id="n" x="0" y="0" width="100%" height="100%"><feTurbulence type="fractalNoise" baseFrequency="0.9" numOctaves="2" stitchTiles="stitch" result="n"/><feColorMatrix type="saturate" values="0"/><feComponentTransfer><feFuncA type="linear" slope="0.16"/></feComponentTransfer><feBlend in2="SourceGraphic" mode="soft-light"/></filter><clipPath id="c"><rect width="1200" height="800"/></clipPath></defs><rect width="1200" height="800" fill="url(#g)"/><g clip-path="url(#c)"><path d="M339.8,541.5C338.6,595.3 249.7,659.3 195.9,698.5C142.1,737.7 66.9,788.8 17.1,776.5C-32.8,764.3 -74.3,682.5 -103.1,625.2C-131.9,567.8 -177.1,479.4 -155.7,432.4C-134.3,385.4 -34.4,352.7 25.5,343.2C85.3,333.7 150.7,342.4 203.1,375.4C255.5,408.5 341.0,487.6 339.8,541.5Z" fill="hsl(154.36134250089526 85% 70.2779232757166% / 0.75)" filter="url(#b)"/><path d="M1169.1,174.5C1171.4,285.9 1083.2,460.2 995.6,517.7C908.0,575.1 750.0,546.8 643.3,519.0C536.6,491.2 390.3,431.3 355.6,350.9C320.9,270.5 391.4,141.3 435.2,36.4C479.0,-68.5 527.5,-247.3 618.5,-278.6C709.6,-309.8 889.8,-226.6 981.6,-151.1C1073.3,-75.6 1166.8,63.0 1169.1,174.5Z" fill="hsl(216.10153810307384 85% 62.76363856624812% / 0.75)" filter="url(#b)"/><path d="M630.1,663.9C640.3,722.7 606.6,841.3 557.5,878.5C508.4,915.7 400.9,905.3 335.4,887.3C269.9,869.3 186.6,822.6 164.7,770.7C142.8,718.8 173.9,624.3 203.9,576.1C233.9,527.8 296.0,489.7 344.7,481.4C393.4,473.0 448.8,495.6 496.3,526.1C543.9,556.5 619.9,605.2 630.1,663.9Z" fill="hsl(214.45477643236518 85% 55.617197756655514% / 0.75)" filter="url(#b)"/><circle cx="657" cy="708" r="686" fill="hsl(318 80% 55% / 0.9)"/><circle cx="657" cy="708" r="480" fill="url(#g)"/><circle cx="1000" cy="91" r="60" fill="hsl(168 60% 20% / 0.85)"/></g><rect width="1200" height="800" fill="hsl(168 50% 50%)" filter="url(#n)" opacity="0.55"/></svg>