<svg xmlns="http://www.w3.org/2000/svg" viewBox="0 0 1200 900" width="1200" height="900"><defs><linearGradient id="g" x1="0" y1="0" x2="1" y2="1"><stop offset="0" stop-color="hsl(268 55% 92%)"/><stop offset="1" stop-color="hsl(312.28286650567316 60% 84%)"/></linearGradient><filter id="b" x="-40%" y="-40%" width="180%" height="180%"><feGaussianBlur stdDeviation="41.256947154179215"/></filter><filter id="b2" x="-40%" y="-40%" width="180%" height="180%"><feGaussianBlur stdDeviation="8"/></filter><filter id="n" x="0" y="0" width="100%" height="100%"><feTurbulence type="fractalNoise" baseFrequency="0.9" numOctaves="2" stitchTiles="stitch" result="n"/><feColorMatrix type="saturate" values="0"/><feComponentTransfer><feFuncA type="linear" slope="0.16"/></feComponentTransfer><feBlend in2="SourceGraphic" mode="soft-light"/></filter><clipPath id="c"><rect width="1200" height="900"/></clipPath></defs><rect width="1200" height="900" fill="url(#g)"/><g clip-path="url(#c)"><path d="M1357.6,718.1C1352.9,765.9 1313.1,818.9 1277.3,843.8C1241.6,868.6 1183.7,876.7 1143.1,867.2C1102.4,857.8 1058.7,827.2 1033.3,787.3C1007.9,747.5 974.6,674.2 990.7,628.3C1006.8,582.5 1077.6,524.1 1130.1,512.2C1182.6,500.3 1267.9,522.4 1305.8,556.7C1343.7,591.0 1362.4,670.2 1357.6,718.1Z" fill="hsl(285.09415152668953 85% 67.66281273216009% / 0.75)" filter="url(#b)"/><path d="M672.2,521.8C672.8,584.7 604.7,672.4 549.8,712.5C494.9,752.6 398.8,779.6 342.8,762.6C286.8,745.5 236.8,665.8 214.0,610.3C191.2,554.8 185.3,487.1 206.2,429.6C227.0,372.1 282.5,281.2 339.2,265.5C395.9,249.9 490.9,292.8 546.4,335.5C601.9,378.2 671.6,459.0 672.2,521.8Z" fill="hsl(268.86610838770866 85% 57.46534834615886% / 0.75)" filter="url(#b)"/><path d="M1442.4,556.0C1440.4,615.8 1360.5,681.6 1304.0,727.9C1247.5,774.2 1155.5,848.7 1103.5,834.1C1051.5,819.5 1020.3,705.5 991.9,640.3C963.5,575.2 914.2,502.7 933.1,443.4C952.0,384.2 1041.2,297.2 1105.1,284.9C1168.9,272.5 1259.9,323.9 1316.1,369.1C1372.3,414.3 1444.4,496.2 1442.4,556.0Z" fill="hsl(307.9992029927671 85% 67.86736473906785% / 0.75)" filter="url(#b)"/><line x1="125" y1="0" x2="125" y2="900" stroke="hsl(268 60% 20% / 0.85)" stroke-width="1.5" opacity="0.35"/><line x1="250" y1="0" x2="250" y2="900" stroke="hsl(268 60% 20% / 0.85)" stroke-width="1.5" opacity="0.35"/><line x1="374" y1="0" x2="374" y2="900" stroke="hsl(268 60% 20% / 0.85)" stroke-width="1.5" opacity="0.35"/><line x1="499" y1="0" x2="499" y2="900" stroke="hsl(268 60% 20% / 0.85)" stroke-width="1.5" opacity="0.35"/><line x1="624" y1="0" x2="624" y2="900" stroke="hsl(268 60% 20% / 0.85)" stroke-width="1.5" opacity="0.35"/><line x1="749" y1="0" x2="749" y2="900" stroke="hsl(268 60% 20% / 0.85)" stroke-width="1.5" opacity="0.35"/><line x1="873" y1="0" x2="873" y2="900" stroke="hsl(268 60% 20% / 0.85)" stroke-width="1.5" opacity="0.35"/><line x1="998" y1="0" x2="998" y2="900" stroke="hsl(268 60% 20% / 0.85)" stroke-width="1.5" opacity="0.35"/><line x1="1123" y1="0" x2="1123" y2="900" stroke="hsl(268 60% 20% / 0.85)" stroke-width="1.5" opacity="0.35"/><line x1="0" y1="125" x2="1200" y2="125" stroke="hsl(268 60% 20% / 0.85)" stroke-width="1.5" opacity="0.35"/><line x1="0" y1="250" x2="1200" y2="250" stroke="hsl(268 60% 20% / 0.85)" stroke-width="1.5" opacity="0.35"/><line x1="0" y1="374" x2="1200" y2="374" stroke="hsl(268 60% 20% / 0.85)" stroke-width="1.5" opacity="0.35"/><line x1="0" y1="499" x2="1200" y2="499" stroke="hsl(268 60% 20% / 0.85)" stroke-width="1.5" opacity="0.35"/><line x1="0" y1="624" x2="1200" y2="624" stroke="hsl(268 60% 20% / 0.85)" stroke-width="1.5" opacity="0.35"/><line x1="0" y1="749" x2="1200" y2="749" stroke="hsl(268 60% 20% / 0.85)" stroke-width="1.5" opacity="0.35"/><line x1="0" y1="873" x2="1200" y2="873" stroke="hsl(268 60% 20% / 0.85)" stroke-width="1.5" opacity="0.35"/><path d="M880.0,450.0C882.3,516.9 824.0,612.9 766.8,659.2C709.6,705.5 594.0,748.4 536.6,727.8C479.1,707.2 455.6,603.2 422.1,535.7C388.6,468.2 316.1,380.8 335.8,322.8C355.4,264.7 470.5,198.4 540.1,187.6C609.7,176.8 696.5,214.2 753.2,257.9C809.8,301.6 877.7,383.1 880.0,450.0Z" fill="hsl(312.28286650567316 85% 60% / 0.95)" filter="url(#b2)"/></g><rect width="1200" height="900" fill="hsl(268 50% 50%)" filter="url(#n)" opacity="0.55"/></svg>