<svg xmlns="http://www.w3.org/2000/svg" viewBox="0 0 1000 1250" width="1000" height="1250"><defs><linearGradient id="g" x1="0" y1="0" x2="1" y2="1"><stop offset="0" stop-color="hsl(290 55% 92%)"/><stop offset="1" stop-color="hsl(252.5507169798948 60% 84%)"/></linearGradient><filter id="b" x="-40%" y="-40%" width="180%" height="180%"><feGaussianBlur stdDeviation="59.415291575714946"/></filter><filter id="b2" x="-40%" y="-40%" width="180%" height="180%"><feGaussianBlur stdDeviation="8"/></filter><filter id="n" x="0" y="0" width="100%" height="100%"><feTurbulence type="fractalNoise" baseFrequency="0.9" numOctaves="2" stitchTiles="stitch" result="n"/><feColorMatrix type="saturate" values="0"/><feComponentTransfer><feFuncA type="linear" slope="0.16"/></feComponentTransfer><feBlend in2="SourceGraphic" mode="soft-light"/></filter><clipPath id="c"><rect width="1000" height="1250"/></clipPath></defs><rect width="1000" height="1250" fill="url(#g)"/><g clip-path="url(#c)"><path d="M919.1,1011.3C904.8,1111.6 753.9,1193.6 663.7,1258.4C573.6,1323.1 459.9,1417.3 378.1,1399.7C296.3,1382.1 214.3,1244.6 172.9,1152.8C131.5,1061.0 98.0,948.6 129.6,849.0C161.2,749.3 259.2,587.1 362.6,555.0C465.9,522.9 656.9,580.4 749.7,656.5C842.4,732.5 933.4,911.0 919.1,1011.3Z" fill="hsl(278.8648019731045 85% 64.37577745411545% / 0.75)" filter="url(#b)"/><path d="M589.8,989.9C589.9,1062.0 478.6,1157.2 408.2,1206.8C337.8,1256.4 240.3,1302.4 167.4,1287.5C94.5,1272.5 0.0,1186.4 -29.2,1117.3C-58.4,1048.2 -40.0,946.4 -7.9,872.8C24.3,799.3 94.5,692.5 163.7,676.1C232.8,659.6 336.2,722.0 407.2,774.3C478.2,826.6 589.6,917.9 589.8,989.9Z" fill="hsl(309.4801306910813 85% 59.40180595498532% / 0.75)" filter="url(#b)"/><path d="M1078.8,956.2C1081.2,1031.5 1006.5,1144.1 941.6,1191.5C876.6,1238.9 751.8,1264.5 689.0,1240.5C626.2,1216.4 585.0,1109.7 564.6,1047.3C544.3,984.9 545.1,925.0 566.6,866.0C588.1,807.0 633.9,714.4 693.9,693.2C753.9,672.1 862.7,695.5 926.8,739.3C991.0,783.1 1076.3,880.8 1078.8,956.2Z" fill="hsl(330.8278954960406 85% 58.559604967013% / 0.75)" filter="url(#b)"/><path d="M204.6,191.4C206.8,265.0 241.1,384.8 202.2,420.4C163.2,456.0 42.8,423.1 -29.2,404.9C-101.3,386.8 -194.2,368.4 -230.1,311.6C-266.0,254.8 -276.3,128.3 -244.8,64.1C-213.2,-0.1 -113.2,-59.3 -41.0,-73.5C31.3,-87.7 148.0,-65.2 188.9,-21.1C229.9,23.1 202.4,117.8 204.6,191.4Z" fill="hsl(294.0016784146428 85% 59.12074605934322% / 0.75)" filter="url(#b)"/><circle cx="45" cy="45" r="6.0" fill="hsl(290 60% 20% / 0.85)" opacity="0.31"/><circle cx="134" cy="45" r="7.6" fill="hsl(290 60% 20% / 0.85)" opacity="0.35"/><circle cx="224" cy="45" r="8.9" fill="hsl(290 60% 20% / 0.85)" opacity="0.39"/><circle cx="314" cy="45" r="10.0" fill="hsl(290 60% 20% / 0.85)" opacity="0.42"/><circle cx="403" cy="45" r="10.7" fill="hsl(290 60% 20% / 0.85)" opacity="0.44"/><circle cx="493" cy="45" r="10.9" fill="hsl(290 60% 20% / 0.85)" opacity="0.44"/><circle cx="582" cy="45" r="10.7" fill="hsl(290 60% 20% / 0.85)" opacity="0.44"/><circle cx="672" cy="45" r="10.1" fill="hsl(290 60% 20% / 0.85)" opacity="0.42"/><circle cx="762" cy="45" r="9.1" fill="hsl(290 60% 20% / 0.85)" opacity="0.39"/><circle cx="851" cy="45" r="7.8" fill="hsl(290 60% 20% / 0.85)" opacity="0.36"/><circle cx="941" cy="45" r="6.2" fill="hsl(290 60% 20% / 0.85)" opacity="0.31"/><circle cx="45" cy="134" r="8.1" fill="hsl(290 60% 20% / 0.85)" opacity="0.36"/><circle cx="134" cy="134" r="9.9" fill="hsl(290 60% 20% / 0.85)" opacity="0.41"/><circle cx="224" cy="134" r="11.4" fill="hsl(290 60% 20% / 0.85)" opacity="0.46"/><circle cx="314" cy="134" r="12.6" fill="hsl(290 60% 20% / 0.85)" opacity="0.49"/><circle cx="403" cy="134" r="13.4" fill="hsl(290 60% 20% / 0.85)" opacity="0.51"/><circle cx="493" cy="134" r="13.7" fill="hsl(290 60% 20% / 0.85)" opacity="0.52"/><circle cx="582" cy="134" r="13.5" fill="hsl(290 60% 20% / 0.85)" opacity="0.51"/><circle cx="672" cy="134" r="12.8" fill="hsl(290 60% 20% / 0.85)" opacity="0.50"/><circle cx="762" cy="134" r="11.7" fill="hsl(290 60% 20% / 0.85)" opacity="0.46"/><circle cx="851" cy="134" r="10.2" fill="hsl(290 60% 20% / 0.85)" opacity="0.42"/><circle cx="941" cy="134" r="8.4" fill="hsl(290 60% 20% / 0.85)" opacity="0.37"/><circle cx="45" cy="224" r="10.1" fill="hsl(290 60% 20% / 0.85)" opacity="0.42"/><circle cx="134" cy="224" r="12.1" fill="hsl(290 60% 20% / 0.85)" opacity="0.48"/><circle cx="224" cy="224" r="13.8" fill="hsl(290 60% 20% / 0.85)" opacity="0.52"/><circle cx="314" cy="224" r="15.2" fill="hsl(290 60% 20% / 0.85)" opacity="0.56"/><circle cx="403" cy="224" r="16.2" fill="hsl(290 60% 20% / 0.85)" opacity="0.59"/><circle cx="493" cy="224" r="16.5" fill="hsl(290 60% 20% / 0.85)" opacity="0.60"/><circle cx="582" cy="224" r="16.3" fill="hsl(290 60% 20% / 0.85)" opacity="0.59"/><circle cx="672" cy="224" r="15.4" fill="hsl(290 60% 20% / 0.85)" opacity="0.57"/><circle cx="762" cy="224" r="14.1" fill="hsl(290 60% 20% / 0.85)" opacity="0.53"/><circle cx="851" cy="224" r="12.4" fill="hsl(290 60% 20% / 0.85)" opacity="0.48"/><circle cx="941" cy="224" r="10.4" fill="hsl(290 60% 20% / 0.85)" opacity="0.43"/><circle cx="45" cy="314" r="11.8" fill="hsl(290 60% 20% / 0.85)" opacity="0.47"/><circle cx="134" cy="314" r="14.0" fill="hsl(290 60% 20% / 0.85)" opacity="0.53"/><circle cx="224" cy="314" r="16.0" fill="hsl(290 60% 20% / 0.85)" opacity="0.59"/><circle cx="314" cy="314" r="17.7" fill="hsl(290 60% 20% / 0.85)" opacity="0.63"/><circle cx="403" cy="314" r="18.9" fill="hsl(290 60% 20% / 0.85)" opacity="0.66"/><circle cx="493" cy="314" r="19.3" fill="hsl(290 60% 20% / 0.85)" opacity="0.68"/><circle cx="582" cy="314" r="19.0" fill="hsl(290 60% 20% / 0.85)" opacity="0.67"/><circle cx="672" cy="314" r="17.9" fill="hsl(290 60% 20% / 0.85)" opacity="0.64"/><circle cx="762" cy="314" r="16.3" fill="hsl(290 60% 20% / 0.85)" opacity="0.59"/><circle cx="851" cy="314" r="14.4" fill="hsl(290 60% 20% / 0.85)" opacity="0.54"/><circle cx="941" cy="314" r="12.2" fill="hsl(290 60% 20% / 0.85)" opacity="0.48"/><circle cx="45" cy="403" r="13.2" fill="hsl(290 60% 20% / 0.85)" opacity="0.51"/><circle cx="134" cy="403" r="15.7" fill="hsl(290 60% 20% / 0.85)" opacity="0.58"/><circle cx="224" cy="403" r="18.0" fill="hsl(290 60% 20% / 0.85)" opacity="0.64"/><circle cx="314" cy="403" r="20.0" fill="hsl(290 60% 20% / 0.85)" opacity="0.70"/><circle cx="403" cy="403" r="21.5" fill="hsl(290 60% 20% / 0.85)" opacity="0.74"/><circle cx="493" cy="403" r="22.1" fill="hsl(290 60% 20% / 0.85)" opacity="0.76"/><circle cx="582" cy="403" r="21.7" fill="hsl(290 60% 20% / 0.85)" opacity="0.74"/><circle cx="672" cy="403" r="20.3" fill="hsl(290 60% 20% / 0.85)" opacity="0.70"/><circle cx="762" cy="403" r="18.3" fill="hsl(290 60% 20% / 0.85)" opacity="0.65"/><circle cx="851" cy="403" r="16.1" fill="hsl(290 60% 20% / 0.85)" opacity="0.59"/><circle cx="941" cy="403" r="13.6" fill="hsl(290 60% 20% / 0.85)" opacity="0.52"/><circle cx="45" cy="493" r="14.2" fill="hsl(290 60% 20% / 0.85)" opacity="0.54"/><circle cx="134" cy="493" r="16.9" fill="hsl(290 60% 20% / 0.85)" opacity="0.61"/><circle cx="224" cy="493" r="19.5" fill="hsl(290 60% 20% / 0.85)" opacity="0.68"/><circle cx="314" cy="493" r="21.9" fill="hsl(290 60% 20% / 0.85)" opacity="0.75"/><circle cx="403" cy="493" r="24.0" fill="hsl(290 60% 20% / 0.85)" opacity="0.81"/><circle cx="493" cy="493" r="24.9" fill="hsl(290 60% 20% / 0.85)" opacity="0.83"/><circle cx="582" cy="493" r="24.2" fill="hsl(290 60% 20% / 0.85)" opacity="0.81"/><circle cx="672" cy="493" r="22.3" fill="hsl(290 60% 20% / 0.85)" opacity="0.76"/><circle cx="762" cy="493" r="19.9" fill="hsl(290 60% 20% / 0.85)" opacity="0.69"/><circle cx="851" cy="493" r="17.3" fill="hsl(290 60% 20% / 0.85)" opacity="0.62"/><circle cx="941" cy="493" r="14.7" fill="hsl(290 60% 20% / 0.85)" opacity="0.55"/><circle cx="45" cy="582" r="14.8" fill="hsl(290 60% 20% / 0.85)" opacity="0.55"/><circle cx="134" cy="582" r="17.6" fill="hsl(290 60% 20% / 0.85)" opacity="0.63"/><circle cx="224" cy="582" r="20.3" fill="hsl(290 60% 20% / 0.85)" opacity="0.71"/><circle cx="314" cy="582" r="23.1" fill="hsl(290 60% 20% / 0.85)" opacity="0.78"/><circle cx="403" cy="582" r="25.8" fill="hsl(290 60% 20% / 0.85)" opacity="0.86"/><circle cx="493" cy="582" r="27.7" fill="hsl(290 60% 20% / 0.85)" opacity="0.91"/><circle cx="582" cy="582" r="26.2" fill="hsl(290 60% 20% / 0.85)" opacity="0.87"/><circle cx="672" cy="582" r="23.5" fill="hsl(290 60% 20% / 0.85)" opacity="0.80"/><circle cx="762" cy="582" r="20.8" fill="hsl(290 60% 20% / 0.85)" opacity="0.72"/><circle cx="851" cy="582" r="18.0" fill="hsl(290 60% 20% / 0.85)" opacity="0.64"/><circle cx="941" cy="582" r="15.2" fill="hsl(290 60% 20% / 0.85)" opacity="0.56"/><circle cx="45" cy="672" r="14.7" fill="hsl(290 60% 20% / 0.85)" opacity="0.55"/><circle cx="134" cy="672" r="17.5" fill="hsl(290 60% 20% / 0.85)" opacity="0.63"/><circle cx="224" cy="672" r="20.3" fill="hsl(290 60% 20% / 0.85)" opacity="0.71"/><circle cx="314" cy="672" r="23.1" fill="hsl(290 60% 20% / 0.85)" opacity="0.78"/><circle cx="403" cy="672" r="25.7" fill="hsl(290 60% 20% / 0.85)" opacity="0.86"/><circle cx="493" cy="672" r="27.6" fill="hsl(290 60% 20% / 0.85)" opacity="0.91"/><circle cx="582" cy="672" r="26.1" fill="hsl(290 60% 20% / 0.85)" opacity="0.87"/><circle cx="672" cy="672" r="23.5" fill="hsl(290 60% 20% / 0.85)" opacity="0.79"/><circle cx="762" cy="672" r="20.8" fill="hsl(290 60% 20% / 0.85)" opacity="0.72"/><circle cx="851" cy="672" r="18.0" fill="hsl(290 60% 20% / 0.85)" opacity="0.64"/><circle cx="941" cy="672" r="15.2" fill="hsl(290 60% 20% / 0.85)" opacity="0.56"/><circle cx="45" cy="762" r="14.2" fill="hsl(290 60% 20% / 0.85)" opacity="0.53"/><circle cx="134" cy="762" r="16.9" fill="hsl(290 60% 20% / 0.85)" opacity="0.61"/><circle cx="224" cy="762" r="19.4" fill="hsl(290 60% 20% / 0.85)" opacity="0.68"/><circle cx="314" cy="762" r="21.8" fill="hsl(290 60% 20% / 0.85)" opacity="0.75"/><circle cx="403" cy="762" r="23.8" fill="hsl(290 60% 20% / 0.85)" opacity="0.80"/><circle cx="493" cy="762" r="24.8" fill="hsl(290 60% 20% / 0.85)" opacity="0.83"/><circle cx="582" cy="762" r="24.1" fill="hsl(290 60% 20% / 0.85)" opacity="0.81"/><circle cx="672" cy="762" r="22.2" fill="hsl(290 60% 20% / 0.85)" opacity="0.76"/><circle cx="762" cy="762" r="19.8" fill="hsl(290 60% 20% / 0.85)" opacity="0.69"/><circle cx="851" cy="762" r="17.3" fill="hsl(290 60% 20% / 0.85)" opacity="0.62"/><circle cx="941" cy="762" r="14.6" fill="hsl(290 60% 20% / 0.85)" opacity="0.55"/><circle cx="45" cy="851" r="13.2" fill="hsl(290 60% 20% / 0.85)" opacity="0.51"/><circle cx="134" cy="851" r="15.6" fill="hsl(290 60% 20% / 0.85)" opacity="0.57"/><circle cx="224" cy="851" r="17.9" fill="hsl(290 60% 20% / 0.85)" opacity="0.64"/><circle cx="314" cy="851" r="19.9" fill="hsl(290 60% 20% / 0.85)" opacity="0.69"/><circle cx="403" cy="851" r="21.4" fill="hsl(290 60% 20% / 0.85)" opacity="0.73"/><circle cx="493" cy="851" r="22.0" fill="hsl(290 60% 20% / 0.85)" opacity="0.75"/><circle cx="582" cy="851" r="21.5" fill="hsl(290 60% 20% / 0.85)" opacity="0.74"/><circle cx="672" cy="851" r="20.2" fill="hsl(290 60% 20% / 0.85)" opacity="0.70"/><circle cx="762" cy="851" r="18.2" fill="hsl(290 60% 20% / 0.85)" opacity="0.65"/><circle cx="851" cy="851" r="16.0" fill="hsl(290 60% 20% / 0.85)" opacity="0.58"/><circle cx="941" cy="851" r="13.6" fill="hsl(290 60% 20% / 0.85)" opacity="0.52"/><circle cx="45" cy="941" r="11.7" fill="hsl(290 60% 20% / 0.85)" opacity="0.47"/><circle cx="134" cy="941" r="13.9" fill="hsl(290 60% 20% / 0.85)" opacity="0.53"/><circle cx="224" cy="941" r="15.9" fill="hsl(290 60% 20% / 0.85)" opacity="0.58"/><circle cx="314" cy="941" r="17.6" fill="hsl(290 60% 20% / 0.85)" opacity="0.63"/><circle cx="403" cy="941" r="18.7" fill="hsl(290 60% 20% / 0.85)" opacity="0.66"/><circle cx="493" cy="941" r="19.2" fill="hsl(290 60% 20% / 0.85)" opacity="0.67"/><circle cx="582" cy="941" r="18.9" fill="hsl(290 60% 20% / 0.85)" opacity="0.66"/><circle cx="672" cy="941" r="17.8" fill="hsl(290 60% 20% / 0.85)" opacity="0.64"/><circle cx="762" cy="941" r="16.2" fill="hsl(290 60% 20% / 0.85)" opacity="0.59"/><circle cx="851" cy="941" r="14.3" fill="hsl(290 60% 20% / 0.85)" opacity="0.54"/><circle cx="941" cy="941" r="12.1" fill="hsl(290 60% 20% / 0.85)" opacity="0.48"/><circle cx="45" cy="1030" r="10.0" fill="hsl(290 60% 20% / 0.85)" opacity="0.42"/><circle cx="134" cy="1030" r="12.0" fill="hsl(290 60% 20% / 0.85)" opacity="0.47"/><circle cx="224" cy="1030" r="13.7" fill="hsl(290 60% 20% / 0.85)" opacity="0.52"/><circle cx="314" cy="1030" r="15.1" fill="hsl(290 60% 20% / 0.85)" opacity="0.56"/><circle cx="403" cy="1030" r="16.0" fill="hsl(290 60% 20% / 0.85)" opacity="0.59"/><circle cx="493" cy="1030" r="16.4" fill="hsl(290 60% 20% / 0.85)" opacity="0.60"/><circle cx="582" cy="1030" r="16.1" fill="hsl(290 60% 20% / 0.85)" opacity="0.59"/><circle cx="672" cy="1030" r="15.3" fill="hsl(290 60% 20% / 0.85)" opacity="0.56"/><circle cx="762" cy="1030" r="14.0" fill="hsl(290 60% 20% / 0.85)" opacity="0.53"/><circle cx="851" cy="1030" r="12.3" fill="hsl(290 60% 20% / 0.85)" opacity="0.48"/><circle cx="941" cy="1030" r="10.3" fill="hsl(290 60% 20% / 0.85)" opacity="0.43"/><circle cx="45" cy="1120" r="8.0" fill="hsl(290 60% 20% / 0.85)" opacity="0.36"/><circle cx="134" cy="1120" r="9.8" fill="hsl(290 60% 20% / 0.85)" opacity="0.41"/><circle cx="224" cy="1120" r="11.3" fill="hsl(290 60% 20% / 0.85)" opacity="0.45"/><circle cx="314" cy="1120" r="12.5" fill="hsl(290 60% 20% / 0.85)" opacity="0.49"/><circle cx="403" cy="1120" r="13.3" fill="hsl(290 60% 20% / 0.85)" opacity="0.51"/><circle cx="493" cy="1120" r="13.6" fill="hsl(290 60% 20% / 0.85)" opacity="0.52"/><circle cx="582" cy="1120" r="13.4" fill="hsl(290 60% 20% / 0.85)" opacity="0.51"/><circle cx="672" cy="1120" r="12.7" fill="hsl(290 60% 20% / 0.85)" opacity="0.49"/><circle cx="762" cy="1120" r="11.5" fill="hsl(290 60% 20% / 0.85)" opacity="0.46"/><circle cx="851" cy="1120" r="10.1" fill="hsl(290 60% 20% / 0.85)" opacity="0.42"/><circle cx="941" cy="1120" r="8.3" fill="hsl(290 60% 20% / 0.85)" opacity="0.37"/><circle cx="45" cy="1210" r="5.9" fill="hsl(290 60% 20% / 0.85)" opacity="0.30"/><circle cx="134" cy="1210" r="7.5" fill="hsl(290 60% 20% / 0.85)" opacity="0.35"/><circle cx="224" cy="1210" r="8.8" fill="hsl(290 60% 20% / 0.85)" opacity="0.38"/><circle cx="314" cy="1210" r="9.9" fill="hsl(290 60% 20% / 0.85)" opacity="0.41"/><circle cx="403" cy="1210" r="10.5" fill="hsl(290 60% 20% / 0.85)" opacity="0.43"/><circle cx="493" cy="1210" r="10.8" fill="hsl(290 60% 20% / 0.85)" opacity="0.44"/><circle cx="582" cy="1210" r="10.6" fill="hsl(290 60% 20% / 0.85)" opacity="0.43"/><circle cx="672" cy="1210" r="10.0" fill="hsl(290 60% 20% / 0.85)" opacity="0.42"/><circle cx="762" cy="1210" r="9.0" fill="hsl(290 60% 20% / 0.85)" opacity="0.39"/><circle cx="851" cy="1210" r="7.7" fill="hsl(290 60% 20% / 0.85)" opacity="0.35"/><circle cx="941" cy="1210" r="6.1" fill="hsl(290 60% 20% / 0.85)" opacity="0.31"/></g><rect width="1000" height="1250" fill="hsl(290 50% 50%)" filter="url(#n)" opacity="0.55"/></svg>