<svg xmlns="http://www.w3.org/2000/svg" viewBox="0 0 1200 900" width="1200" height="900"><defs><linearGradient id="g" x1="0" y1="0" x2="0" y2="1"><stop offset="0" stop-color="hsl(210 45% 14%)"/><stop offset="1" stop-color="hsl(177.6090975489933 50% 26%)"/></linearGradient><filter id="b" x="-40%" y="-40%" width="180%" height="180%"><feGaussianBlur stdDeviation="46.289623845368624"/></filter><filter id="b2" x="-40%" y="-40%" width="180%" height="180%"><feGaussianBlur stdDeviation="8"/></filter><filter id="n" x="0" y="0" width="100%" height="100%"><feTurbulence type="fractalNoise" baseFrequency="0.9" numOctaves="2" stitchTiles="stitch" result="n"/><feColorMatrix type="saturate" values="0"/><feComponentTransfer><feFuncA type="linear" slope="0.16"/></feComponentTransfer><feBlend in2="SourceGraphic" mode="soft-light"/></filter><clipPath id="c"><rect width="1200" height="900"/></clipPath></defs><rect width="1200" height="900" fill="url(#g)"/><g clip-path="url(#c)"><path d="M542.3,675.7C532.6,772.5 397.1,869.4 311.0,929.8C224.9,990.2 116.2,1053.1 25.7,1038.1C-64.9,1023.1 -201.7,921.5 -232.3,839.8C-262.9,758.0 -203.0,626.2 -157.9,547.5C-112.9,468.8 -49.7,400.7 38.0,367.6C125.8,334.5 284.8,297.8 368.8,349.1C452.9,400.5 551.9,578.9 542.3,675.7Z" fill="hsl(199.88754151389003 85% 47.69139412557706% / 0.75)" filter="url(#b)"/><path d="M1107.5,583.8C1104.7,635.4 1084.6,698.4 1049.0,727.8C1013.5,757.2 946.2,768.3 894.0,760.3C841.8,752.2 755.2,721.4 735.8,679.4C716.4,637.4 752.8,560.0 777.7,508.5C802.7,456.9 837.4,384.9 885.4,370.0C933.5,355.0 1029.0,382.9 1066.0,418.6C1103.1,454.2 1110.4,532.3 1107.5,583.8Z" fill="hsl(216.17881681770086 85% 47.94785564765334% / 0.75)" filter="url(#b)"/><path d="M392.6,832.0C394.1,875.6 352.2,946.1 316.2,968.4C280.2,990.7 216.1,978.6 176.8,966.1C137.6,953.5 97.3,925.7 80.8,893.0C64.3,860.3 62.2,802.8 78.0,769.7C93.9,736.6 137.8,704.8 176.0,694.3C214.2,683.8 271.3,683.6 307.4,706.6C343.5,729.5 391.2,788.4 392.6,832.0Z" fill="hsl(257.1227486245334 85% 62.34842815203592% / 0.75)" filter="url(#b)"/><path d="M1229.5,691.3C1232.3,742.1 1226.4,825.9 1191.9,854.4C1157.5,883.0 1077.3,874.0 1022.7,862.7C968.2,851.3 883.4,827.1 864.5,786.3C845.7,745.6 884.0,665.4 909.7,618.1C935.4,570.7 974.5,513.8 1018.7,502.4C1062.9,491.0 1139.8,518.0 1174.9,549.5C1210.1,581.0 1226.7,640.5 1229.5,691.3Z" fill="hsl(264.75743118673563 85% 50.92183640692383% / 0.75)" filter="url(#b)"/><circle cx="289" cy="987" r="747" fill="hsl(177.6090975489933 80% 62% / 0.9)"/><circle cx="289" cy="987" r="523" fill="url(#g)"/><circle cx="663" cy="315" r="46" fill="hsl(210 30% 96% / 0.9)"/></g><rect width="1200" height="900" fill="hsl(210 50% 50%)" filter="url(#n)" opacity="0.55"/></svg>