<svg xmlns="http://www.w3.org/2000/svg" viewBox="0 0 1200 800" width="1200" height="800"><defs><linearGradient id="g" x1="0" y1="0" x2="1" y2="1"><stop offset="0" stop-color="hsl(350 45% 14%)"/><stop offset="1" stop-color="hsl(284.92111739120446 50% 26%)"/></linearGradient><filter id="b" x="-40%" y="-40%" width="180%" height="180%"><feGaussianBlur stdDeviation="60.459620179608464"/></filter><filter id="b2" x="-40%" y="-40%" width="180%" height="180%"><feGaussianBlur stdDeviation="8"/></filter><filter id="n" x="0" y="0" width="100%" height="100%"><feTurbulence type="fractalNoise" baseFrequency="0.9" numOctaves="2" stitchTiles="stitch" result="n"/><feColorMatrix type="saturate" values="0"/><feComponentTransfer><feFuncA type="linear" slope="0.16"/></feComponentTransfer><feBlend in2="SourceGraphic" mode="soft-light"/></filter><clipPath id="c"><rect width="1200" height="800"/></clipPath></defs><rect width="1200" height="800" fill="url(#g)"/><g clip-path="url(#c)"><path d="M593.5,279.4C605.1,369.7 563.1,536.4 491.2,593.7C419.2,651.0 273.3,642.3 162.0,623.4C50.7,604.5 -130.6,566.0 -176.6,480.3C-222.5,394.5 -168.2,207.5 -113.5,108.9C-58.9,10.4 62.2,-101.6 151.4,-111.1C240.6,-120.5 348.0,-12.8 421.7,52.3C495.4,117.4 582.0,189.2 593.5,279.4Z" fill="hsl(38.48301246762276 85% 61.261191287776455% / 0.75)" filter="url(#b)"/><path d="M981.0,779.2C991.8,848.3 924.0,990.0 862.8,1027.3C801.6,1064.6 685.2,1025.9 613.9,1003.0C542.6,980.1 460.5,943.5 435.1,889.9C409.7,836.3 433.6,745.1 461.6,681.3C489.5,617.4 546.8,518.4 602.8,506.9C658.9,495.5 734.8,567.2 797.8,612.6C860.8,658.0 970.2,710.1 981.0,779.2Z" fill="hsl(348.70635325089097 85% 52.63185332180001% / 0.75)" filter="url(#b)"/><line x1="112" y1="0" x2="112" y2="800" stroke="hsl(350 30% 96% / 0.9)" stroke-width="1.5" opacity="0.35"/><line x1="225" y1="0" x2="225" y2="800" stroke="hsl(350 30% 96% / 0.9)" stroke-width="1.5" opacity="0.35"/><line x1="337" y1="0" x2="337" y2="800" stroke="hsl(350 30% 96% / 0.9)" stroke-width="1.5" opacity="0.35"/><line x1="449" y1="0" x2="449" y2="800" stroke="hsl(350 30% 96% / 0.9)" stroke-width="1.5" opacity="0.35"/><line x1="561" y1="0" x2="561" y2="800" stroke="hsl(350 30% 96% / 0.9)" stroke-width="1.5" opacity="0.35"/><line x1="674" y1="0" x2="674" y2="800" stroke="hsl(350 30% 96% / 0.9)" stroke-width="1.5" opacity="0.35"/><line x1="786" y1="0" x2="786" y2="800" stroke="hsl(350 30% 96% / 0.9)" stroke-width="1.5" opacity="0.35"/><line x1="898" y1="0" x2="898" y2="800" stroke="hsl(350 30% 96% / 0.9)" stroke-width="1.5" opacity="0.35"/><line x1="1011" y1="0" x2="1011" y2="800" stroke="hsl(350 30% 96% / 0.9)" stroke-width="1.5" opacity="0.35"/><line x1="1123" y1="0" x2="1123" y2="800" stroke="hsl(350 30% 96% / 0.9)" stroke-width="1.5" opacity="0.35"/><line x1="0" y1="112" x2="1200" y2="112" stroke="hsl(350 30% 96% / 0.9)" stroke-width="1.5" opacity="0.35"/><line x1="0" y1="225" x2="1200" y2="225" stroke="hsl(350 30% 96% / 0.9)" stroke-width="1.5" opacity="0.35"/><line x1="0" y1="337" x2="1200" y2="337" stroke="hsl(350 30% 96% / 0.9)" stroke-width="1.5" opacity="0.35"/><line x1="0" y1="449" x2="1200" y2="449" stroke="hsl(350 30% 96% / 0.9)" stroke-width="1.5" opacity="0.35"/><line x1="0" y1="561" x2="1200" y2="561" stroke="hsl(350 30% 96% / 0.9)" stroke-width="1.5" opacity="0.35"/><line x1="0" y1="674" x2="1200" y2="674" stroke="hsl(350 30% 96% / 0.9)" stroke-width="1.5" opacity="0.35"/><line x1="0" y1="786" x2="1200" y2="786" stroke="hsl(350 30% 96% / 0.9)" stroke-width="1.5" opacity="0.35"/><path d="M800.2,400.0C805.5,455.1 788.8,551.4 747.7,585.3C706.7,619.1 613.4,617.2 553.6,603.2C493.8,589.3 420.7,554.4 389.1,501.6C357.5,448.8 336.7,337.3 364.1,286.4C391.5,235.5 494.8,201.5 553.5,196.2C612.1,190.9 674.9,220.6 716.0,254.5C757.1,288.5 794.9,344.9 800.2,400.0Z" fill="hsl(284.92111739120446 85% 60% / 0.95)" filter="url(#b2)"/></g><rect width="1200" height="800" fill="hsl(350 50% 50%)" filter="url(#n)" opacity="0.55"/></svg>