<svg xmlns="http://www.w3.org/2000/svg" viewBox="0 0 1200 900" width="1200" height="900"><defs><linearGradient id="g" x1="0" y1="0" x2="0" y2="1"><stop offset="0" stop-color="hsl(320 55% 92%)"/><stop offset="1" stop-color="hsl(14.700576765462756 60% 84%)"/></linearGradient><filter id="b" x="-40%" y="-40%" width="180%" height="180%"><feGaussianBlur stdDeviation="58.33212818019092"/></filter><filter id="b2" x="-40%" y="-40%" width="180%" height="180%"><feGaussianBlur stdDeviation="8"/></filter><filter id="n" x="0" y="0" width="100%" height="100%"><feTurbulence type="fractalNoise" baseFrequency="0.9" numOctaves="2" stitchTiles="stitch" result="n"/><feColorMatrix type="saturate" values="0"/><feComponentTransfer><feFuncA type="linear" slope="0.16"/></feComponentTransfer><feBlend in2="SourceGraphic" mode="soft-light"/></filter><clipPath id="c"><rect width="1200" height="900"/></clipPath></defs><rect width="1200" height="900" fill="url(#g)"/><g clip-path="url(#c)"><path d="M934.9,243.2C926.7,339.1 857.8,442.4 785.7,499.9C713.6,557.3 596.7,601.9 502.3,588.2C407.9,574.4 255.8,498.7 219.5,417.3C183.1,336.0 236.3,183.3 284.2,100.3C332.2,17.3 415.3,-51.4 507.1,-80.7C598.9,-110.0 763.9,-129.5 835.2,-75.5C906.5,-21.5 943.2,147.3 934.9,243.2Z" fill="hsl(318.6741247586906 85% 59.050873052328825% / 0.75)" filter="url(#b)"/><path d="M406.0,801.1C400.1,850.5 330.9,887.3 284.8,927.2C238.7,967.2 174.7,1048.2 129.5,1040.8C84.3,1033.5 29.4,935.3 13.5,883.3C-2.4,831.3 13.0,774.8 34.1,728.8C55.1,682.8 92.3,623.5 139.9,607.2C187.6,590.8 275.7,598.4 320.1,630.7C364.4,663.0 411.9,751.7 406.0,801.1Z" fill="hsl(334.1922127828002 85% 73.81830972153693% / 0.75)" filter="url(#b)"/><path d="M846.0,707.0C852.9,785.7 865.5,915.9 813.1,969.0C760.7,1022.0 612.1,1047.2 531.5,1025.6C451.0,1003.9 357.4,911.4 329.8,839.2C302.2,767.0 327.9,648.7 365.8,592.2C403.7,535.7 489.4,516.3 557.1,500.4C624.8,484.5 723.8,462.3 771.9,496.8C820.1,531.2 839.1,628.3 846.0,707.0Z" fill="hsl(320.44239738956094 85% 69.02364892419428% / 0.75)" filter="url(#b)"/><circle cx="850" cy="979" r="555" fill="hsl(14.700576765462756 80% 55% / 0.9)"/><circle cx="850" cy="979" r="389" fill="url(#g)"/><circle cx="1127" cy="479" r="33" fill="hsl(320 60% 20% / 0.85)"/></g><rect width="1200" height="900" fill="hsl(320 50% 50%)" filter="url(#n)" opacity="0.55"/></svg>