<svg xmlns="http://www.w3.org/2000/svg" viewBox="0 0 1200 800" width="1200" height="800"><defs><linearGradient id="g" x1="0" y1="0" x2="1" y2="1"><stop offset="0" stop-color="hsl(268 45% 14%)"/><stop offset="1" stop-color="hsl(323.3436522290576 50% 26%)"/></linearGradient><filter id="b" x="-40%" y="-40%" width="180%" height="180%"><feGaussianBlur stdDeviation="35.52991829812527"/></filter><filter id="b2" x="-40%" y="-40%" width="180%" height="180%"><feGaussianBlur stdDeviation="8"/></filter><filter id="n" x="0" y="0" width="100%" height="100%"><feTurbulence type="fractalNoise" baseFrequency="0.9" numOctaves="2" stitchTiles="stitch" result="n"/><feColorMatrix type="saturate" values="0"/><feComponentTransfer><feFuncA type="linear" slope="0.16"/></feComponentTransfer><feBlend in2="SourceGraphic" mode="soft-light"/></filter><clipPath id="c"><rect width="1200" height="800"/></clipPath></defs><rect width="1200" height="800" fill="url(#g)"/><g clip-path="url(#c)"><path d="M1100.8,632.5C1097.7,746.0 1090.0,883.8 1014.1,961.4C938.2,1038.9 748.1,1124.5 645.6,1098.0C543.0,1071.5 434.6,905.9 398.7,802.6C362.8,699.2 384.7,563.7 430.4,477.7C476.1,391.7 572.5,319.4 672.9,286.5C773.3,253.6 961.4,222.6 1032.7,280.3C1104.0,338.0 1103.9,519.0 1100.8,632.5Z" fill="hsl(291.16131504252553 85% 55.49689877545461% / 0.75)" filter="url(#b)"/><path d="M656.2,436.8C657.1,497.7 605.7,591.3 557.4,622.6C509.0,653.9 426.8,638.3 366.3,624.5C305.9,610.8 220.7,587.6 194.5,540.2C168.3,492.9 183.5,402.1 209.1,340.5C234.8,278.8 291.2,184.2 348.4,170.3C405.5,156.5 500.8,213.2 552.1,257.6C603.4,302.1 655.3,376.0 656.2,436.8Z" fill="hsl(283.53027521818876 85% 58.86519622756168% / 0.75)" filter="url(#b)"/><line x1="119" y1="0" x2="119" y2="800" stroke="hsl(268 30% 96% / 0.9)" stroke-width="1.5" opacity="0.35"/><line x1="238" y1="0" x2="238" y2="800" stroke="hsl(268 30% 96% / 0.9)" stroke-width="1.5" opacity="0.35"/><line x1="357" y1="0" x2="357" y2="800" stroke="hsl(268 30% 96% / 0.9)" stroke-width="1.5" opacity="0.35"/><line x1="476" y1="0" x2="476" y2="800" stroke="hsl(268 30% 96% / 0.9)" stroke-width="1.5" opacity="0.35"/><line x1="595" y1="0" x2="595" y2="800" stroke="hsl(268 30% 96% / 0.9)" stroke-width="1.5" opacity="0.35"/><line x1="714" y1="0" x2="714" y2="800" stroke="hsl(268 30% 96% / 0.9)" stroke-width="1.5" opacity="0.35"/><line x1="833" y1="0" x2="833" y2="800" stroke="hsl(268 30% 96% / 0.9)" stroke-width="1.5" opacity="0.35"/><line x1="951" y1="0" x2="951" y2="800" stroke="hsl(268 30% 96% / 0.9)" stroke-width="1.5" opacity="0.35"/><line x1="1070" y1="0" x2="1070" y2="800" stroke="hsl(268 30% 96% / 0.9)" stroke-width="1.5" opacity="0.35"/><line x1="1189" y1="0" x2="1189" y2="800" stroke="hsl(268 30% 96% / 0.9)" stroke-width="1.5" opacity="0.35"/><line x1="0" y1="119" x2="1200" y2="119" stroke="hsl(268 30% 96% / 0.9)" stroke-width="1.5" opacity="0.35"/><line x1="0" y1="238" x2="1200" y2="238" stroke="hsl(268 30% 96% / 0.9)" stroke-width="1.5" opacity="0.35"/><line x1="0" y1="357" x2="1200" y2="357" stroke="hsl(268 30% 96% / 0.9)" stroke-width="1.5" opacity="0.35"/><line x1="0" y1="476" x2="1200" y2="476" stroke="hsl(268 30% 96% / 0.9)" stroke-width="1.5" opacity="0.35"/><line x1="0" y1="595" x2="1200" y2="595" stroke="hsl(268 30% 96% / 0.9)" stroke-width="1.5" opacity="0.35"/><line x1="0" y1="714" x2="1200" y2="714" stroke="hsl(268 30% 96% / 0.9)" stroke-width="1.5" opacity="0.35"/><path d="M775.6,400.0C775.8,453.2 764.5,527.8 727.8,560.3C691.1,592.7 607.1,606.8 555.6,594.6C504.1,582.5 443.9,535.3 418.8,487.3C393.7,439.2 381.5,350.2 405.0,306.1C428.4,262.0 505.9,233.5 559.5,222.6C613.1,211.8 690.7,211.5 726.8,241.0C762.8,270.6 775.5,346.8 775.6,400.0Z" fill="hsl(323.3436522290576 85% 60% / 0.95)" filter="url(#b2)"/></g><rect width="1200" height="800" fill="hsl(268 50% 50%)" filter="url(#n)" opacity="0.55"/></svg>