<svg xmlns="http://www.w3.org/2000/svg" viewBox="0 0 400 400" width="400" height="400"><defs><linearGradient id="g" x1="0" y1="0" x2="1" y2="1"><stop offset="0" stop-color="hsl(168 70% 62%)"/><stop offset="1" stop-color="hsl(103.1581547036767 65% 45%)"/></linearGradient><filter id="b" x="-40%" y="-40%" width="180%" height="180%"><feGaussianBlur stdDeviation="28"/></filter><filter id="n" x="0" y="0" width="100%" height="100%"><feTurbulence type="fractalNoise" baseFrequency="0.9" numOctaves="2" stitchTiles="stitch" result="n"/><feColorMatrix type="saturate" values="0"/><feComponentTransfer><feFuncA type="linear" slope="0.12"/></feComponentTransfer><feBlend in2="SourceGraphic" mode="soft-light"/></filter></defs><rect width="400" height="400" fill="url(#g)"/><path d="M209.6,188.2C208.9,208.0 197.2,229.2 181.3,245.1C165.3,261.1 132.4,288.4 114.0,284.1C95.6,279.8 83.3,243.3 70.8,219.6C58.3,195.8 30.9,159.0 38.9,141.5C47.0,124.1 94.7,117.2 119.1,114.7C143.4,112.1 170.1,114.2 185.2,126.4C200.2,138.7 210.2,168.4 209.6,188.2Z" fill="hsl(188 90% 82% / 0.75)" filter="url(#b)"/><path d="M399.0,269.5C400.9,296.6 380.3,342.1 358.2,357.7C336.1,373.4 292.4,371.3 266.4,363.5C240.4,355.6 215.7,334.5 202.4,310.7C189.0,286.8 174.7,240.0 186.1,220.5C197.5,201.0 243.7,197.9 270.5,193.6C297.4,189.4 325.8,182.4 347.2,195.0C368.7,207.7 397.2,242.4 399.0,269.5Z" fill="hsl(83.1581547036767 80% 30% / 0.6)" filter="url(#b)"/><circle cx="250" cy="216" r="105" fill="none" stroke="hsl(168 40% 96% / 0.9)" stroke-width="6"/><circle cx="265" cy="245" r="15" fill="hsl(168 30% 98%)"/><rect width="400" height="400" fill="hsl(168 50% 50%)" filter="url(#n)" opacity="0.5"/></svg>